General
Format: AVI
File size: 1.37 GiB
Duration: 1h 22mn
Overall bit rate: 2 366 Kbps
IMDb Rating: 4.7/10 349 votes
Genre: Comedy | Horror
Source: 720p bluray x264-TITANS
Video
Format: MPEG-4 Visual
Format profile: Streaming Video@L1
Format settings, BVOP: Yes
Format settings, QPel: No
Format settings, GMC: No warppoints
Format settings, Matrix: Default (H.263)
Muxing mode: Packed bitstream
Codec ID: XVID
Bit rate: 1 908 Kbps
Width: 720 pixels
Height: 400 pixels
Display aspect ratio: 16/9
Frame rate: 23.976 fps
Resolution: 24 bits
Colorimetry: 4:2:0
Scan type: Progressive
Bits/(Pixel*Frame): 0.276
Stream size: 1.10 GiB (81%)
Audio
Format: AC-3
Bit rate mode: Constant
Bit rate: 448 Kbps
Channel(s): 6 channels
Sampling rate: 48.0 KHz
Stream size: 266 MiB (19%) 